<?xml version="1.0" standalone="no"?>
<!DOCTYPE svg PUBLIC "-//W3C//DTD SVG 20010904//EN"
 "http://www.w3.org/TR/2001/REC-SVG-20010904/DTD/svg10.dtd">
<svg version="1.0" xmlns="http://www.w3.org/2000/svg"
 width="284.000000pt" height="284.000000pt" viewBox="0 0 284.000000 284.000000"
 preserveAspectRatio="xMidYMid meet">
<metadata>
Created by potrace 1.14, written by Peter Selinger 2001-2017
</metadata>
<g transform="translate(0.000000,284.000000) scale(0.100000,-0.100000)"
fill="#000000" stroke="none">
<path d="M890 2134 c-6 -14 -10 -29 -10 -34 0 -4 -14 -37 -31 -73 -42 -90 -41
-141 1 -237 43 -97 44 -148 3 -232 -57 -116 -59 -155 -12 -256 43 -93 43 -146
-3 -237 -49 -98 -53 -135 -22 -220 15 -38 32 -90 39 -114 6 -25 17 -47 22 -48
15 -5 -1 73 -25 122 -49 99 -48 138 4 248 45 97 48 156 11 237 -51 113 -52
152 -4 245 11 22 26 68 32 102 12 58 11 66 -12 120 -61 144 -62 178 -7 283 24
47 43 120 30 120 -4 0 -11 -12 -16 -26z"/>
<path d="M930 2120 c-6 -22 -23 -63 -37 -92 -42 -84 -42 -140 1 -235 46 -103
46 -138 0 -233 -51 -108 -54 -158 -14 -245 17 -39 34 -92 37 -120 4 -43 -1
-61 -36 -133 -52 -106 -54 -154 -11 -252 17 -38 30 -75 30 -83 0 -23 11 -47
22 -47 15 0 2 54 -27 117 -15 32 -29 83 -32 113 -5 49 -1 64 33 135 52 108 53
155 8 255 -44 95 -42 148 6 245 47 94 47 155 0 255 -42 93 -42 134 0 221 33
69 53 139 39 139 -4 0 -13 -18 -19 -40z"/>
<path d="M1781 2148 c-87 -16 -44 -23 131 -21 194 2 187 1 165 14 -24 14 -230
19 -296 7z"/>
<path d="M766 2135 c-4 -11 -16 -42 -28 -70 -45 -110 -50 -130 -45 -181 3 -28
18 -75 33 -105 39 -77 38 -143 -6 -229 -47 -93 -48 -139 -6 -248 41 -104 41
-146 -2 -229 -55 -105 -57 -146 -13 -254 16 -41 32 -87 36 -102 3 -15 9 -25
14 -22 12 7 -3 70 -33 135 -14 30 -27 68 -29 85 -4 35 15 105 42 149 42 68 44
152 5 235 -14 31 -28 81 -31 111 -4 48 -1 63 27 115 17 32 36 80 41 106 11 49
10 51 -48 208 -24 63 -19 99 28 202 17 37 29 77 27 90 -4 23 -5 23 -12 4z"/>
<path d="M807 2143 c-4 -3 -7 -14 -7 -23 0 -9 -16 -54 -36 -100 -43 -98 -42
-139 3 -235 40 -85 38 -149 -6 -239 -45 -90 -46 -154 -6 -241 41 -88 40 -153
-4 -235 -49 -95 -52 -158 -13 -246 17 -38 33 -86 37 -108 4 -25 10 -35 16 -29
12 12 -1 68 -35 148 -35 83 -33 125 11 215 49 101 50 164 3 269 -39 91 -37
126 11 226 46 95 46 163 0 254 -41 79 -39 135 7 231 32 68 46 120 33 120 -4 0
-11 -3 -14 -7z"/>
<path d="M844 2123 c-3 -16 -20 -59 -37 -98 -42 -91 -42 -151 -3 -226 51 -98
51 -142 1 -248 -46 -96 -49 -154 -12 -234 51 -112 51 -146 -2 -257 -47 -101
-49 -154 -7 -245 14 -32 29 -75 32 -96 4 -22 11 -39 17 -39 16 0 0 80 -28 138
-44 91 -44 128 1 223 51 108 53 173 9 269 -40 89 -39 134 9 239 46 100 46 152
1 246 -42 86 -40 147 8 245 21 41 37 82 37 92 0 28 -19 21 -26 -9z"/>
<path d="M975 2123 c-3 -15 -20 -56 -38 -92 -46 -97 -44 -140 13 -265 32 -71
28 -123 -15 -213 -50 -105 -52 -149 -9 -248 46 -106 45 -146 -6 -255 -45 -97
-48 -131 -19 -210 11 -30 28 -76 37 -102 21 -57 32 -70 32 -36 0 14 -14 59
-32 99 -43 100 -42 152 2 244 50 103 52 163 9 256 -45 98 -44 147 5 251 48
102 48 148 0 248 -44 93 -43 131 9 246 20 45 37 87 37 93 0 22 -18 10 -25 -16z"/>
<path d="M1025 2135 c-4 -11 -23 -54 -41 -96 -51 -115 -50 -148 9 -269 31 -64
29 -142 -5 -203 -60 -107 -64 -168 -17 -265 46 -96 45 -145 -6 -253 -48 -102
-49 -139 -7 -246 17 -43 33 -86 36 -95 3 -10 11 -18 17 -18 15 0 6 35 -32 118
-43 93 -42 137 6 236 51 105 52 162 6 261 -44 92 -43 137 3 235 19 41 37 94
40 118 5 46 -14 114 -47 170 -32 54 -27 118 17 211 21 44 36 88 33 98 -4 16
-5 16 -12 -2z"/>
<path d="M725 2125 c-4 -11 -23 -54 -41 -96 -44 -99 -44 -146 -3 -242 43 -98
42 -141 -4 -243 -43 -95 -47 -147 -16 -214 33 -72 48 -131 42 -164 -3 -17 -21
-64 -40 -103 -45 -94 -46 -142 -4 -245 17 -42 31 -83 31 -92 0 -8 5 -18 10
-21 19 -12 10 37 -21 113 -47 117 -46 134 15 267 24 51 27 69 23 120 -3 34
-16 84 -31 117 -38 80 -36 127 9 220 48 100 48 149 4 250 -42 96 -41 134 5
236 21 46 36 90 33 100 -3 15 -5 15 -12 -3z"/>
<path d="M1038 2057 c-56 -126 -57 -147 -13 -255 47 -117 47 -151 -1 -249 -49
-102 -50 -158 -4 -257 45 -97 44 -145 -6 -243 -50 -100 -52 -156 -6 -260 18
-39 32 -76 32 -82 0 -6 5 -11 10 -11 17 0 11 28 -22 97 -44 93 -44 156 -1 234
57 104 58 152 7 275 -42 101 -42 146 0 220 58 105 62 173 14 273 -46 94 -45
152 5 249 37 75 43 92 29 92 -4 0 -24 -38 -44 -83z"/>
<path d="M673 2105 c0 -8 -14 -46 -32 -84 -43 -94 -43 -146 -1 -237 44 -94 44
-138 -4 -236 -48 -98 -49 -142 -7 -243 41 -98 40 -141 -4 -234 -46 -95 -50
-137 -24 -209 12 -31 28 -76 36 -99 9 -24 20 -43 25 -43 12 0 3 39 -21 95 -50
112 -50 140 1 245 42 86 44 168 6 252 -42 91 -42 121 0 213 50 112 53 161 11
261 -41 98 -42 142 -1 226 41 86 47 108 29 108 -7 0 -14 -7 -14 -15z"/>
<path d="M1086 2067 c-61 -127 -63 -162 -13 -272 44 -95 43 -156 -4 -245 -30
-57 -34 -74 -33 -135 0 -57 6 -82 32 -135 43 -88 42 -126 -8 -230 -54 -110
-55 -154 -8 -260 37 -84 41 -91 49 -79 3 6 -9 45 -28 86 -46 100 -46 140 3
240 52 107 54 155 7 257 -48 106 -47 149 3 245 49 93 52 166 12 251 -53 110
-54 168 -4 255 29 51 38 75 27 75 -5 0 -20 -24 -35 -53z"/>
<path d="M1890 2110 c-244 -5 -290 -9 -290 -28 0 -6 577 -8 630 -3 12 1 11 4
-3 12 -37 22 -77 24 -337 19z"/>
<path d="M1118 2048 c-45 -89 -45 -156 1 -258 46 -98 45 -137 -5 -238 -51
-104 -52 -159 -5 -262 46 -99 45 -146 -5 -243 -50 -96 -51 -161 -5 -260 17
-37 35 -65 40 -62 5 3 -5 38 -24 78 -42 90 -41 135 7 234 49 101 50 159 4 262
-46 102 -46 136 1 231 33 65 38 84 38 145 0 58 -6 83 -34 144 -40 90 -39 131
8 220 34 66 36 71 21 71 -5 0 -24 -28 -42 -62z"/>
<path d="M608 2038 c-51 -122 -52 -157 -7 -261 41 -92 40 -135 -5 -228 -50
-106 -50 -155 1 -265 35 -77 32 -120 -13 -212 -47 -96 -50 -152 -12 -239 14
-32 29 -67 33 -78 5 -14 9 -16 12 -7 3 8 -8 44 -23 80 -40 93 -39 147 6 237
45 91 47 163 6 245 -40 81 -39 138 3 225 48 98 50 166 9 255 -42 87 -41 144 1
227 32 64 37 83 23 83 -4 0 -19 -28 -34 -62z"/>
<path d="M575 2054 c-56 -130 -58 -176 -14 -277 40 -91 39 -130 -5 -222 -49
-104 -49 -164 0 -270 33 -70 30 -113 -13 -209 -44 -97 -47 -154 -13 -236 26
-62 57 -104 45 -60 -4 14 -16 45 -28 70 -32 69 -29 131 12 214 46 93 48 155 7
246 -41 90 -39 143 8 240 46 96 47 141 5 230 -43 88 -43 144 0 229 22 43 29
67 22 74 -6 6 -15 -3 -26 -29z"/>
<path d="M1158 2030 c-44 -96 -43 -126 15 -250 33 -72 28 -139 -18 -240 -48
-106 -48 -144 -3 -242 46 -100 45 -159 -2 -253 -30 -58 -35 -79 -35 -134 0
-71 36 -171 61 -171 9 0 4 19 -17 64 -41 87 -40 128 4 221 20 41 39 91 43 109
4 25 10 33 21 29 9 -4 11 -9 4 -16 -5 -5 -7 -15 -4 -22 2 -7 -11 -44 -31 -82
-44 -85 -50 -139 -23 -213 20 -57 33 -77 42 -68 3 3 -5 27 -16 54 -30 67 -29
127 4 196 25 52 47 81 47 61 0 -4 -11 -35 -25 -68 -13 -33 -25 -74 -25 -91 0
-48 29 -134 46 -134 13 0 12 4 -1 31 -31 58 -30 119 0 188 18 39 34 61 44 61
13 -1 13 -3 -3 -15 -11 -8 -17 -15 -13 -15 4 0 0 -17 -8 -37 -8 -21 -17 -50
-19 -66 -6 -33 20 -127 36 -127 6 0 8 9 3 23 -20 67 -21 85 -8 130 8 29 19 47
28 47 13 0 13 -4 2 -33 -12 -28 -13 -124 -2 -135 12 -12 22 12 16 40 -9 43 -3
78 13 78 9 0 13 -13 12 -37 -1 -21 4 -39 9 -40 6 -1 9 5 9 13 -1 9 4 13 15 10
9 -3 50 -8 91 -11 41 -3 98 -7 125 -10 48 -5 74 -7 230 -20 39 -3 81 -8 95
-10 14 -2 58 -7 97 -10 99 -8 148 -13 197 -21 63 -11 96 -8 114 10 15 15 15
16 -3 17 -11 1 -29 3 -40 4 -80 9 -178 19 -295 29 -41 4 -88 9 -105 11 -55 7
-139 14 -235 21 -52 4 -102 8 -110 10 -8 1 -39 3 -67 3 -32 1 -53 5 -53 12 0
8 23 9 73 5 39 -3 101 -8 137 -11 129 -9 247 -19 345 -29 80 -9 137 -14 210
-21 100 -9 160 -17 166 -21 4 -2 18 5 30 16 13 11 22 20 19 21 -14 3 -64 8
-150 14 -52 4 -97 8 -100 10 -3 2 -50 6 -105 10 -55 3 -111 8 -125 10 -23 3
-65 7 -215 20 -27 2 -95 6 -150 10 -55 3 -104 11 -110 17 -9 9 157 5 265 -7
19 -2 76 -7 125 -11 50 -3 98 -8 108 -10 10 -2 64 -6 120 -9 56 -4 104 -8 107
-10 7 -4 176 -19 230 -19 32 -1 45 3 45 13 0 8 -7 15 -16 16 -14 3 -151 15
-224 20 -37 3 -168 15 -215 20 -19 2 -73 7 -120 10 -47 3 -105 8 -130 10 -25
2 -92 7 -150 11 -58 3 -109 9 -114 11 -25 15 28 17 161 7 81 -7 186 -15 233
-18 47 -4 103 -9 125 -11 47 -4 193 -16 244 -19 20 -2 72 -7 116 -11 117 -13
129 -12 133 6 2 14 -10 18 -70 23 -40 4 -93 9 -118 11 -139 13 -181 16 -240
20 -65 4 -162 11 -255 20 -43 4 -224 16 -262 18 -7 0 -13 4 -13 10 0 7 159 3
280 -8 19 -2 76 -6 125 -10 50 -3 106 -8 125 -10 19 -2 71 -7 115 -10 44 -3
94 -7 110 -9 17 -2 68 -7 115 -11 47 -4 87 -9 89 -11 8 -7 41 17 41 31 0 12
-15 15 -62 16 -35 1 -72 3 -83 4 -11 1 -69 6 -128 9 -59 4 -116 9 -125 11 -9
1 -69 6 -132 10 -63 4 -128 9 -145 11 -16 2 -88 6 -160 10 -71 3 -134 11 -140
16 -9 9 173 5 315 -7 64 -6 160 -13 274 -21 54 -3 115 -8 135 -9 20 -2 79 -7
131 -10 52 -4 98 -9 103 -12 13 -8 47 8 47 23 0 8 -10 15 -22 15 -36 2 -90 6
-195 14 -54 5 -114 9 -133 10 -49 3 -215 15 -275 20 -27 2 -108 7 -180 10 -71
4 -141 9 -155 10 -14 2 -31 4 -37 4 -7 1 -13 6 -13 12 0 7 19 9 58 5 31 -3
100 -8 152 -11 112 -6 233 -14 310 -20 327 -26 504 -35 513 -26 21 21 -9 29
-133 36 -69 3 -136 8 -150 10 -14 2 -86 6 -160 10 -74 4 -157 8 -185 10 -97 7
-251 17 -295 20 -69 4 -70 4 -70 14 0 9 33 8 210 -4 52 -3 138 -8 190 -10 52
-3 127 -7 165 -10 39 -3 99 -7 135 -10 36 -3 108 -7 160 -10 52 -3 105 -7 117
-9 22 -5 52 19 40 31 -4 3 -30 7 -59 9 -29 1 -96 5 -148 8 -52 4 -135 8 -185
11 -49 3 -121 7 -160 10 -65 4 -194 12 -340 20 -33 2 -81 4 -107 4 -27 1 -48
5 -48 10 0 9 160 8 285 -3 33 -3 119 -8 190 -11 126 -6 155 -7 350 -20 254
-16 235 -17 235 5 0 16 -7 20 -37 21 -42 0 -111 4 -248 14 -49 3 -135 8 -190
10 -55 2 -136 6 -180 9 -134 9 -339 19 -357 18 -10 0 -21 4 -24 10 -6 9 245 5
406 -7 54 -4 268 -17 335 -20 33 -1 115 -6 183 -10 119 -6 122 -6 122 14 0 19
-6 21 -77 22 -43 1 -91 3 -108 4 -16 1 -102 5 -190 9 -88 4 -187 9 -220 11
-33 2 -127 7 -210 11 -129 6 -180 9 -242 13 -7 1 -13 5 -13 10 0 5 24 8 53 6
56 -4 233 -12 412 -20 61 -3 155 -7 210 -10 55 -3 156 -8 225 -11 69 -3 127
-6 130 -6 26 -2 40 4 40 17 0 8 -8 15 -17 16 -10 0 -36 2 -58 4 -22 1 -114 6
-205 9 -91 4 -199 9 -240 11 -107 6 -361 17 -454 19 -50 1 -81 6 -83 13 -3 9
13 11 54 8 51 -3 238 -11 488 -20 220 -8 387 -16 448 -21 63 -5 67 -4 67 15 0
16 -7 21 -27 21 -33 1 -173 6 -373 14 -80 4 -219 9 -310 12 -91 3 -187 7 -215
8 -27 2 -67 4 -88 5 -23 0 -36 5 -32 11 4 7 52 8 133 5 70 -3 183 -8 252 -10
69 -2 188 -6 265 -10 419 -17 395 -17 395 5 0 19 -7 20 -92 21 -51 0 -127 2
-168 4 -41 1 -178 6 -305 10 -220 7 -286 9 -437 15 -38 2 -68 7 -68 13 0 5 73
6 188 2 184 -6 240 -8 637 -20 110 -3 207 -8 216 -11 20 -6 33 22 16 33 -7 4
-55 8 -107 9 -52 1 -174 4 -270 8 -96 3 -267 9 -380 12 -276 9 -267 8 -277 18
-4 5 108 5 252 2 497 -13 660 -17 718 -20 59 -4 71 1 58 22 -7 12 -22 13 -651
28 -416 10 -410 10 -410 23 0 5 10 8 23 6 12 -2 173 -6 357 -10 184 -3 410 -8
503 -11 141 -4 167 -2 167 10 0 8 -3 17 -7 19 -5 3 -183 8 -398 12 -214 4
-435 9 -490 10 -55 2 -112 4 -127 4 -16 1 -28 5 -28 10 0 5 55 8 123 6 67 -2
288 -6 492 -10 203 -4 373 -9 377 -11 12 -7 38 8 38 22 0 9 -12 14 -32 15 -18
0 -87 2 -153 4 -66 2 -293 6 -505 10 -226 3 -389 10 -395 16 -9 9 273 7 832
-6 214 -5 250 -1 220 23 -12 10 -296 17 -950 23 -72 1 -130 5 -133 11 -4 7
156 8 477 3 266 -4 500 -7 519 -7 73 -1 76 0 58 19 -15 15 -60 17 -420 20
-541 5 -648 7 -648 17 0 9 465 9 842 1 103 -3 190 0 193 4 16 27 -39 30 -538
34 -284 2 -520 6 -523 10 -4 4 1 7 12 8 53 3 919 -3 958 -6 35 -3 46 -1 46 10
0 8 -5 17 -12 21 -17 11 -1028 13 -1034 2 -10 -16 -24 -8 -24 15 -1 20 -2 20
-11 4 -6 -10 -8 -23 -6 -30 2 -7 0 -21 -6 -32 -10 -19 -10 -19 -17 0 -4 11 -3
35 1 55 9 38 4 49 -12 33 -10 -10 -15 -92 -7 -122 1 -7 -2 -15 -7 -17 -21 -8
-32 70 -19 122 17 63 17 69 0 55 -32 -27 -38 -107 -15 -174 21 -57 5 -75 -17
-20 -26 60 -29 108 -9 158 22 58 13 82 -11 30 -28 -61 -25 -147 8 -212 18 -36
23 -53 14 -53 -7 0 -25 27 -41 60 -36 74 -38 137 -7 197 27 52 28 76 2 44 -27
-32 -51 -118 -45 -164 3 -21 19 -65 35 -97 31 -61 37 -94 20 -105 -5 -3 -10 1
-10 11 0 9 -16 51 -35 94 -44 98 -45 143 -5 228 18 39 25 62 17 62 -7 0 -24
-27 -39 -60z m269 -166 c-3 -3 -12 -4 -19 -1 -8 3 -5 6 6 6 11 1 17 -2 13 -5z
m-80 -50 c-3 -3 -12 -4 -19 -1 -8 3 -5 6 6 6 11 1 17 -2 13 -5z m53 2 c0 -11
-19 -15 -25 -6 -3 5 1 10 9 10 9 0 16 -2 16 -4z m47 -2 c-3 -3 -12 -4 -19 -1
-8 3 -5 6 6 6 11 1 17 -2 13 -5z m-127 -54 c0 -5 -2 -10 -4 -10 -3 0 -8 5 -11
10 -3 6 -1 10 4 10 6 0 11 -4 11 -10z m50 0 c0 -5 -7 -7 -15 -4 -8 4 -15 8
-15 10 0 2 7 4 15 4 8 0 15 -4 15 -10z m50 6 c0 -3 -4 -8 -10 -11 -5 -3 -10
-1 -10 4 0 6 5 11 10 11 6 0 10 -2 10 -4z m50 -6 c0 -5 -4 -10 -10 -10 -5 0
-10 5 -10 10 0 6 5 10 10 10 6 0 10 -4 10 -10z m-80 -49 c0 -4 -7 -8 -15 -8
-16 0 -20 9 -9 20 8 8 24 -1 24 -12z m-103 3 c-3 -3 -12 -4 -19 -1 -8 3 -5 6
6 6 11 1 17 -2 13 -5z m50 0 c-3 -3 -12 -4 -19 -1 -8 3 -5 6 6 6 11 1 17 -2
13 -5z m103 -4 c0 -5 -4 -10 -9 -10 -6 0 -13 5 -16 10 -3 6 1 10 9 10 9 0 16
-4 16 -10z m45 0 c3 -5 -1 -10 -9 -10 -9 0 -16 5 -16 10 0 6 4 10 9 10 6 0 13
-4 16 -10z m55 0 c0 -5 -7 -10 -15 -10 -8 0 -15 5 -15 10 0 6 7 10 15 10 8 0
15 -4 15 -10z m-290 -46 c0 -2 -7 -4 -15 -4 -8 0 -15 4 -15 10 0 5 7 7 15 4 8
-4 15 -8 15 -10z m37 0 c-3 -3 -12 -4 -19 -1 -8 3 -5 6 6 6 11 1 17 -2 13 -5z
m53 2 c0 -11 -19 -15 -25 -6 -3 5 1 10 9 10 9 0 16 -2 16 -4z m50 -6 c0 -5 -4
-10 -9 -10 -6 0 -13 5 -16 10 -3 6 1 10 9 10 9 0 16 -4 16 -10z m50 0 c0 -5
-7 -10 -15 -10 -8 0 -15 5 -15 10 0 6 7 10 15 10 8 0 15 -4 15 -10z m45 0 c-3
-5 -10 -10 -16 -10 -5 0 -9 5 -9 10 0 6 7 10 16 10 8 0 12 -4 9 -10z m50 0
c-3 -5 -10 -10 -16 -10 -5 0 -9 5 -9 10 0 6 7 10 16 10 8 0 12 -4 9 -10z
m-295 -46 c0 -2 -7 -4 -15 -4 -8 0 -15 4 -15 10 0 5 7 7 15 4 8 -4 15 -8 15
-10z m40 7 c0 -5 -7 -12 -16 -15 -14 -5 -15 -4 -4 9 14 17 20 19 20 6z m50 -5
c0 -11 -19 -15 -25 -6 -3 5 1 10 9 10 9 0 16 -2 16 -4z m45 -6 c-3 -5 -10 -10
-16 -10 -5 0 -9 5 -9 10 0 6 7 10 16 10 8 0 12 -4 9 -10z m50 0 c-3 -5 -10
-10 -16 -10 -5 0 -9 5 -9 10 0 6 7 10 16 10 8 0 12 -4 9 -10z m45 0 c0 -5 -4
-10 -10 -10 -5 0 -10 5 -10 10 0 6 5 10 10 10 6 0 10 -4 10 -10z m50 0 c0 -5
-5 -10 -11 -10 -5 0 -7 5 -4 10 3 6 8 10 11 10 2 0 4 -4 4 -10z m54 -11 c-6
-11 -24 -2 -24 11 0 5 7 7 15 4 8 -4 12 -10 9 -15z m-354 -24 c0 -2 -10 -9
-22 -15 -22 -11 -22 -10 -4 4 21 17 26 19 26 11z m80 -15 c0 -5 -4 -10 -10
-10 -5 0 -10 5 -10 10 0 6 5 10 10 10 6 0 10 -4 10 -10z m55 0 c-3 -5 -10 -10
-16 -10 -5 0 -9 5 -9 10 0 6 7 10 16 10 8 0 12 -4 9 -10z m45 0 c0 -5 -7 -10
-16 -10 -8 0 -12 5 -9 10 3 6 10 10 16 10 5 0 9 -4 9 -10z m50 0 c0 -5 -8 -10
-17 -10 -15 0 -16 2 -3 10 19 12 20 12 20 0z m45 0 c-3 -5 -11 -10 -16 -10 -6
0 -7 5 -4 10 3 6 11 10 16 10 6 0 7 -4 4 -10z m55 -4 c0 -2 -7 -6 -15 -10 -8
-3 -15 -1 -15 4 0 6 7 10 15 10 8 0 15 -2 15 -4z m-376 -73 c-15 -49 -10 -137
9 -161 7 -9 7 -16 0 -23 -8 -8 -17 6 -32 47 -23 60 -22 85 6 156 21 53 34 38
17 -19z m56 33 c0 -3 -4 -8 -10 -11 -5 -3 -10 -1 -10 4 0 6 5 11 10 11 6 0 10
-2 10 -4z m50 0 c0 -2 -7 -6 -15 -10 -8 -3 -15 -1 -15 4 0 6 7 10 15 10 8 0
15 -2 15 -4z m45 -6 c-3 -5 -10 -10 -16 -10 -5 0 -9 5 -9 10 0 6 7 10 16 10 8
0 12 -4 9 -10z m45 0 c0 -5 -4 -10 -10 -10 -5 0 -10 5 -10 10 0 6 5 10 10 10
6 0 10 -4 10 -10z m50 0 c0 -5 -7 -10 -16 -10 -8 0 -12 5 -9 10 3 6 10 10 16
10 5 0 9 -4 9 -10z m45 0 c3 -5 -1 -10 -10 -10 -9 0 -13 5 -10 10 3 6 8 10 10
10 2 0 7 -4 10 -10z m50 -10 c-3 -5 -10 -10 -16 -10 -5 0 -9 5 -9 10 0 6 7 10
16 10 8 0 12 -4 9 -10z m50 0 c-3 -5 -10 -10 -16 -10 -5 0 -9 5 -9 10 0 6 7
10 16 10 8 0 12 -4 9 -10z m-348 -36 c-3 -3 -12 -4 -19 -1 -8 3 -5 6 6 6 11 1
17 -2 13 -5z m40 0 c-3 -3 -12 -4 -19 -1 -8 3 -5 6 6 6 11 1 17 -2 13 -5z m53
-4 c0 -5 -7 -10 -15 -10 -8 0 -15 5 -15 10 0 6 7 10 15 10 8 0 15 -4 15 -10z
m40 0 c0 -5 -7 -10 -16 -10 -8 0 -12 5 -9 10 3 6 10 10 16 10 5 0 9 -4 9 -10z
m50 0 c0 -5 -7 -10 -16 -10 -8 0 -12 5 -9 10 3 6 10 10 16 10 5 0 9 -4 9 -10z
m47 -6 c-3 -3 -12 -4 -19 -1 -8 3 -5 6 6 6 11 1 17 -2 13 -5z m53 -4 c0 -5 -4
-10 -9 -10 -6 0 -13 5 -16 10 -3 6 1 10 9 10 9 0 16 -4 16 -10z m50 -2 c0 -4
-7 -8 -15 -8 -8 0 -15 4 -15 8 0 5 7 9 15 9 8 0 15 -4 15 -9z m-340 -32 c0 -2
-7 -6 -15 -10 -8 -3 -15 -1 -15 4 0 6 7 10 15 10 8 0 15 -2 15 -4z m45 -6 c3
-5 2 -10 -4 -10 -5 0 -13 5 -16 10 -3 6 -2 10 4 10 5 0 13 -4 16 -10z m50 0
c3 -5 -3 -10 -14 -10 -12 0 -21 5 -21 10 0 6 6 10 14 10 8 0 18 -4 21 -10z
m40 0 c3 -5 -1 -10 -9 -10 -9 0 -16 5 -16 10 0 6 4 10 9 10 6 0 13 -4 16 -10z
m45 1 c0 -6 -4 -13 -10 -16 -5 -3 -10 1 -10 9 0 9 5 16 10 16 6 0 10 -4 10 -9z
m54 -9 c3 -5 -1 -9 -9 -9 -8 0 -15 4 -15 9 0 4 4 8 9 8 6 0 12 -4 15 -8z m56
-2 c0 -5 -7 -10 -15 -10 -8 0 -15 5 -15 10 0 6 7 10 15 10 8 0 15 -4 15 -10z
m50 0 c0 -5 -7 -10 -15 -10 -8 0 -15 5 -15 10 0 6 7 10 15 10 8 0 15 -4 15
-10z m-330 -40 c0 -5 -7 -7 -15 -4 -8 4 -15 8 -15 10 0 2 7 4 15 4 8 0 15 -4
15 -10z m40 0 c0 -5 -4 -10 -10 -10 -5 0 -10 5 -10 10 0 6 5 10 10 10 6 0 10
-4 10 -10z m50 0 c0 -5 -7 -10 -16 -10 -8 0 -12 5 -9 10 3 6 10 10 16 10 5 0
9 -4 9 -10z m45 0 c3 -5 -1 -10 -10 -10 -9 0 -13 5 -10 10 3 6 8 10 10 10 2 0
7 -4 10 -10z m45 -5 c11 -13 10 -14 -4 -9 -9 3 -16 10 -16 15 0 13 6 11 20 -6z
m60 -5 c0 -5 -7 -10 -15 -10 -8 0 -15 5 -15 10 0 6 7 10 15 10 8 0 15 -4 15
-10z m50 0 c0 -5 -7 -10 -15 -10 -8 0 -15 5 -15 10 0 6 7 10 15 10 8 0 15 -4
15 -10z m50 -10 c0 -5 -7 -7 -15 -4 -8 4 -15 8 -15 10 0 2 7 4 15 4 8 0 15 -4
15 -10z m-325 -30 c3 -5 2 -10 -4 -10 -5 0 -13 5 -16 10 -3 6 -2 10 4 10 5 0
13 -4 16 -10z m45 0 c0 -5 -5 -10 -11 -10 -5 0 -7 5 -4 10 3 6 8 10 11 10 2 0
4 -4 4 -10z m50 -2 c0 -4 -4 -8 -9 -8 -6 0 -12 4 -15 8 -3 5 1 9 9 9 8 0 15
-4 15 -9z m50 -8 c0 -5 -4 -10 -9 -10 -6 0 -13 5 -16 10 -3 6 1 10 9 10 9 0
16 -4 16 -10z m50 0 c0 -5 -4 -10 -9 -10 -6 0 -13 5 -16 10 -3 6 1 10 9 10 9
0 16 -4 16 -10z m50 0 c0 -5 -4 -10 -10 -10 -5 0 -10 5 -10 10 0 6 5 10 10 10
6 0 10 -4 10 -10z m50 -11 c0 -6 -4 -7 -10 -4 -5 3 -10 11 -10 16 0 6 5 7 10
4 6 -3 10 -11 10 -16z m-320 -29 c0 -5 -4 -10 -10 -10 -5 0 -10 5 -10 10 0 6
5 10 10 10 6 0 10 -4 10 -10z m50 0 c0 -5 -4 -10 -10 -10 -5 0 -10 5 -10 10 0
6 5 10 10 10 6 0 10 -4 10 -10z m50 -10 c0 -5 -7 -7 -15 -4 -8 4 -15 8 -15 10
0 2 7 4 15 4 8 0 15 -4 15 -10z m50 0 c0 -5 -4 -10 -9 -10 -6 0 -13 5 -16 10
-3 6 1 10 9 10 9 0 16 -4 16 -10z m45 0 c3 -5 2 -10 -4 -10 -5 0 -13 5 -16 10
-3 6 -2 10 4 10 5 0 13 -4 16 -10z m50 0 c3 -5 2 -10 -4 -10 -5 0 -13 5 -16
10 -3 6 -2 10 4 10 5 0 13 -4 16 -10z m55 -11 c0 -14 -17 -10 -23 5 -4 10 -1
13 9 9 7 -3 14 -9 14 -14z m50 1 c0 -5 -4 -10 -9 -10 -6 0 -13 5 -16 10 -3 6
1 10 9 10 9 0 16 -4 16 -10z m-330 -30 c0 -5 -4 -10 -10 -10 -5 0 -10 5 -10
10 0 6 5 10 10 10 6 0 10 -4 10 -10z m45 0 c3 -5 -1 -10 -10 -10 -9 0 -13 5
-10 10 3 6 8 10 10 10 2 0 7 -4 10 -10z m55 -10 c0 -5 -4 -10 -9 -10 -6 0 -13
5 -16 10 -3 6 1 10 9 10 9 0 16 -4 16 -10z m45 0 c3 -5 -1 -10 -9 -10 -9 0
-16 5 -16 10 0 6 4 10 9 10 6 0 13 -4 16 -10z m50 0 c3 -5 -1 -10 -9 -10 -9 0
-16 5 -16 10 0 6 4 10 9 10 6 0 13 -4 16 -10z m51 -17 c-7 -7 -26 7 -26 19 0
6 6 6 15 -2 9 -7 13 -15 11 -17z m49 7 c3 -5 -1 -10 -9 -10 -9 0 -16 5 -16 10
0 6 4 10 9 10 6 0 13 -4 16 -10z m-245 -34 c0 -3 -4 -8 -10 -11 -5 -3 -10 -1
-10 4 0 6 5 11 10 11 6 0 10 -2 10 -4z m50 -6 c0 -5 -4 -10 -9 -10 -6 0 -13 5
-16 10 -3 6 1 10 9 10 9 0 16 -4 16 -10z m45 0 c3 -5 -1 -10 -9 -10 -9 0 -16
5 -16 10 0 6 4 10 9 10 6 0 13 -4 16 -10z m50 -9 c-3 -6 -11 -8 -17 -5 -6 4
-5 9 3 15 16 10 23 4 14 -10z m55 -1 c0 -5 -7 -10 -15 -10 -8 0 -15 5 -15 10
0 6 7 10 15 10 8 0 15 -4 15 -10z m50 0 c0 -5 -7 -10 -15 -10 -8 0 -15 5 -15
10 0 6 7 10 15 10 8 0 15 -4 15 -10z m-260 -40 c0 -5 -7 -10 -16 -10 -8 0 -12
5 -9 10 3 6 10 10 16 10 5 0 9 -4 9 -10z m50 0 c0 -5 -8 -10 -17 -10 -15 0
-16 2 -3 10 19 12 20 12 20 0z m50 1 c0 -5 -7 -11 -15 -15 -15 -5 -20 5 -8 17
9 10 23 9 23 -2z m45 -11 c-3 -5 -10 -10 -16 -10 -5 0 -9 5 -9 10 0 6 7 10 16
10 8 0 12 -4 9 -10z m50 0 c-3 -5 -10 -10 -16 -10 -5 0 -9 5 -9 10 0 6 7 10
16 10 8 0 12 -4 9 -10z m50 -9 c-3 -6 -11 -8 -17 -5 -6 4 -5 9 3 15 16 10 23
4 14 -10z m-170 -41 c-3 -5 -10 -10 -16 -10 -5 0 -9 5 -9 10 0 6 7 10 16 10 8
0 12 -4 9 -10z m50 0 c-3 -5 -10 -10 -16 -10 -5 0 -9 5 -9 10 0 6 7 10 16 10
8 0 12 -4 9 -10z m45 0 c0 -5 -8 -10 -17 -10 -15 0 -16 2 -3 10 19 12 20 12
20 0z m-80 -50 c0 -5 -4 -10 -10 -10 -5 0 -10 5 -10 10 0 6 5 10 10 10 6 0 10
-4 10 -10z m50 0 c0 -5 -4 -10 -10 -10 -5 0 -10 5 -10 10 0 6 5 10 10 10 6 0
10 -4 10 -10z m-13 -56 c-3 -3 -12 -4 -19 -1 -8 3 -5 6 6 6 11 1 17 -2 13 -5z"/>
<path d="M1519 2041 c-19 -15 10 -16 390 -16 225 0 413 3 417 7 22 23 -70 28
-418 27 -324 -1 -371 -4 -389 -18z"/>
<path d="M517 2013 c-39 -92 -38 -139 3 -233 41 -93 39 -136 -6 -230 -47 -95
-49 -149 -9 -240 39 -91 39 -146 -3 -233 -44 -92 -49 -138 -22 -209 22 -58 61
-109 45 -58 -4 14 -14 37 -21 52 -32 62 -29 109 11 198 48 106 49 149 6 259
-39 100 -38 129 8 219 48 95 50 141 11 237 -46 116 -44 147 18 268 2 4 -3 7
-11 7 -8 0 -21 -17 -30 -37z"/>
<path d="M459 1968 c-18 -67 -12 -122 18 -185 40 -84 38 -156 -6 -243 -43 -84
-45 -140 -6 -230 38 -88 38 -145 -3 -230 -17 -36 -34 -77 -37 -93 -9 -35 2
-109 20 -133 22 -30 29 -8 11 36 -23 59 -20 83 21 174 46 100 48 157 10 240
-45 98 -45 133 -1 228 49 104 52 164 12 253 -41 91 -42 117 -3 208 5 12 3 17
-9 17 -10 0 -19 -15 -27 -42z"/>
<path d="M1458 1999 c-10 -6 -18 -13 -18 -17 0 -4 170 -8 378 -9 207 -1 421
-2 475 -3 54 -2 101 0 104 4 4 3 -2 13 -13 20 -16 12 -96 15 -464 15 -273 0
-452 -4 -462 -10z"/>
<path d="M412 1939 c-13 -35 -3 -96 26 -157 34 -73 37 -160 6 -212 -32 -55
-53 -126 -47 -162 2 -18 16 -62 31 -98 36 -92 34 -138 -11 -241 -40 -93 -46
-134 -22 -165 13 -17 14 -15 10 31 -3 41 3 64 32 130 46 102 48 158 9 246 -39
85 -38 137 3 224 48 101 50 155 13 241 -35 78 -43 119 -31 151 5 13 4 25 -1
28 -6 4 -14 -4 -18 -16z"/>
<path d="M370 1870 c0 -17 14 -60 30 -97 35 -76 37 -109 11 -178 -11 -27 -27
-70 -36 -95 -25 -67 -22 -109 14 -192 32 -74 35 -111 16 -169 -10 -29 -26 -66
-36 -83 -20 -36 -31 -93 -19 -101 5 -3 12 9 15 27 4 18 21 62 38 98 40 86 41
152 3 235 -39 85 -38 132 8 232 44 99 45 139 5 235 -16 36 -29 75 -29 87 0 11
-4 23 -10 26 -6 4 -10 -7 -10 -25z"/>
<path d="M336 1852 c-3 -6 8 -42 24 -80 39 -91 38 -126 -5 -223 -43 -99 -45
-147 -8 -232 38 -89 37 -153 -5 -236 -23 -44 -30 -67 -23 -74 7 -7 12 -4 17 9
4 10 18 43 32 73 34 72 34 145 -1 227 -40 95 -39 126 11 234 37 82 37 146 0
233 -35 83 -34 81 -42 69z"/>
<path d="M315 1809 c-3 -9 3 -34 14 -55 34 -66 30 -125 -17 -218 -38 -76 -40
-129 -6 -212 36 -87 38 -160 5 -223 -14 -27 -19 -47 -13 -53 6 -6 18 11 32 44
32 71 31 154 0 223 -38 82 -38 130 1 216 43 96 47 162 14 239 -17 39 -25 50
-30 39z"/>
<path d="M293 1758 c3 -13 10 -39 15 -58 9 -38 -4 -105 -31 -155 -21 -39 -21
-23 1 42 17 52 18 143 1 143 -4 0 -8 -24 -7 -52 1 -40 -7 -71 -32 -128 -43
-95 -44 -155 -5 -242 23 -51 27 -70 22 -120 -5 -58 5 -87 17 -45 12 46 5 106
-23 186 -16 45 -28 90 -26 99 2 9 4 24 4 33 1 8 7 24 15 35 13 17 14 14 5 -26
-12 -54 -7 -85 26 -165 28 -69 32 -127 10 -178 -17 -42 -18 -47 -7 -47 5 0 16
18 25 40 19 48 16 132 -5 180 -47 105 -48 127 -3 234 39 93 44 154 21 211 -17
39 -31 47 -23 13z"/>
<path d="M242 1650 c-5 -14 -13 -40 -17 -57 -10 -50 10 -40 25 11 14 50 8 86
-8 46z"/>
<path d="M215 1270 c8 -51 20 -77 28 -63 8 13 -9 83 -23 97 -9 8 -10 0 -5 -34z"/>
<path d="M1420 863 c0 -18 43 -33 112 -38 40 -3 96 -8 123 -10 28 -2 82 -7
120 -10 39 -3 81 -7 95 -10 14 -2 54 -7 90 -10 36 -4 94 -10 130 -15 96 -14
146 -12 160 5 10 12 10 15 -1 16 -8 0 -22 2 -33 4 -10 2 -53 6 -95 10 -42 3
-89 8 -106 10 -28 4 -63 7 -190 19 -27 3 -84 8 -125 11 -41 3 -91 8 -110 10
-84 11 -170 15 -170 8z"/>
<path d="M1510 800 c0 -17 35 -28 110 -35 41 -3 86 -8 100 -10 14 -2 54 -6 90
-10 36 -3 100 -11 144 -16 149 -19 191 -18 198 5 3 10 -10 13 -107 21 -107 10
-158 15 -275 30 -19 2 -73 7 -120 11 -47 3 -97 7 -112 9 -16 2 -28 0 -28 -5z"/>
<path d="M1630 735 c0 -5 94 -33 135 -39 99 -15 143 -17 192 -11 74 9 56 22
-42 29 -44 4 -109 11 -145 16 -70 10 -140 13 -140 5z"/>
</g>
</svg>
